<svg width="28" height="25" viewBox="0 0 28 25" fill="none" xmlns="http://www.w3.org/2000/svg">
<path d="M5.781 0.459999C6.441 0.459999 7.625 0.663999 7.625 2.289C7.625 3.914 6.453 4.539 5.781 4.539C5.109 4.539 4.078 3.901 4.078 2.289C4.078 0.675999 5.211 0.459999 5.781 0.459999ZM2.156 2.5C2.816 2.5 4 2.703 4 4.328C4 5.953 2.828 6.578 2.156 6.578C1.484 6.578 0.453003 5.941 0.453003 4.328C0.453003 2.716 1.586 2.5 2.156 2.5ZM12 2.289C12 0.663999 10.816 0.460999 10.156 0.460999C9.586 0.460999 8.453 0.675999 8.453 2.289C8.453 3.901 9.484 4.539 10.156 4.539C10.828 4.539 12 3.914 12 2.289ZM13.703 2.5C14.363 2.5 15.547 2.703 15.547 4.328C15.547 5.953 14.375 6.578 13.703 6.578C13.031 6.578 12 5.941 12 4.328C12 2.716 13.133 2.5 13.703 2.5ZM12.984 10.469C12.984 7.547 11.094 5.016 8 5.016C4.906 5.016 3.047 7.484 3.047 10.469C3.047 12.953 6.008 12.953 7.993 12.953H8C10.203 12.953 12.984 12.875 12.984 10.469ZM14.156 14.547C14.816 14.547 16 14.75 16 16.375C16 18 14.828 18.625 14.156 18.625C13.484 18.625 12.453 17.987 12.453 16.375C12.453 14.762 13.586 14.547 14.156 14.547ZM19.625 14.336C19.625 12.711 18.441 12.508 17.781 12.508C17.211 12.508 16.078 12.723 16.078 14.336C16.078 15.948 17.109 16.586 17.781 16.586C18.453 16.586 19.625 15.961 19.625 14.336ZM22.156 12.508C22.816 12.508 24 12.711 24 14.336C24 15.961 22.828 16.586 22.156 16.586C21.484 16.586 20.453 15.948 20.453 14.336C20.453 12.723 21.586 12.508 22.156 12.508ZM27.547 16.375C27.547 14.75 26.363 14.547 25.703 14.547C25.133 14.547 24 14.762 24 16.375C24 17.987 25.031 18.625 25.703 18.625C26.375 18.625 27.547 18 27.547 16.375ZM20 17.063C23.094 17.063 24.984 19.593 24.984 22.516C24.984 24.922 22.204 25 20 25H19.992C18.008 25 15.047 25 15.047 22.516C15.047 19.531 16.907 17.063 20 17.063Z" fill="white"/>
</svg>
