<svg width="28" height="26" viewBox="0 0 28 26" fill="none" xmlns="http://www.w3.org/2000/svg">
<path d="M5.781 0.960022C6.441 0.960022 7.625 1.16402 7.625 2.78902C7.625 4.41402 6.453 5.03902 5.781 5.03902C5.109 5.03902 4.078 4.40102 4.078 2.78902C4.078 1.17602 5.211 0.960022 5.781 0.960022ZM2.156 3.00002C2.816 3.00002 4 3.20302 4 4.82802C4 6.45302 2.828 7.07802 2.156 7.07802C1.484 7.07802 0.453003 6.44102 0.453003 4.82802C0.453003 3.21602 1.586 3.00002 2.156 3.00002ZM12 2.78902C12 1.16402 10.816 0.961022 10.156 0.961022C9.586 0.961022 8.453 1.17602 8.453 2.78902C8.453 4.40102 9.484 5.03902 10.156 5.03902C10.828 5.03902 12 4.41402 12 2.78902ZM13.703 3.00002C14.363 3.00002 15.547 3.20302 15.547 4.82802C15.547 6.45302 14.375 7.07802 13.703 7.07802C13.031 7.07802 12 6.44102 12 4.82802C12 3.21602 13.133 3.00002 13.703 3.00002ZM12.984 10.969C12.984 8.04702 11.094 5.51602 8 5.51602C4.906 5.51602 3.047 7.98402 3.047 10.969C3.047 13.453 6.008 13.453 7.993 13.453H8C10.203 13.453 12.984 13.375 12.984 10.969ZM14.156 15.047C14.816 15.047 16 15.25 16 16.875C16 18.5 14.828 19.125 14.156 19.125C13.484 19.125 12.453 18.487 12.453 16.875C12.453 15.262 13.586 15.047 14.156 15.047ZM19.625 14.836C19.625 13.211 18.441 13.008 17.781 13.008C17.211 13.008 16.078 13.223 16.078 14.836C16.078 16.448 17.109 17.086 17.781 17.086C18.453 17.086 19.625 16.461 19.625 14.836ZM22.156 13.008C22.816 13.008 24 13.211 24 14.836C24 16.461 22.828 17.086 22.156 17.086C21.484 17.086 20.453 16.448 20.453 14.836C20.453 13.223 21.586 13.008 22.156 13.008ZM27.547 16.875C27.547 15.25 26.363 15.047 25.703 15.047C25.133 15.047 24 15.262 24 16.875C24 18.487 25.031 19.125 25.703 19.125C26.375 19.125 27.547 18.5 27.547 16.875ZM20 17.563C23.094 17.563 24.984 20.093 24.984 23.016C24.984 25.422 22.204 25.5 20 25.5H19.992C18.008 25.5 15.047 25.5 15.047 23.016C15.047 20.031 16.907 17.563 20 17.563Z" fill="#101828"/>
</svg>
